PathFileType	4	(X/Y/Z)	C:/Users/beibeiliu/ov580/test_trc/capture2\sequence.12_training_dense_left.trc
DataRate	CameraRate	NumFrames	NumMarkers	Units	OrigDataRate	OrigDataStartFrame	OrigNumFrames
120	120	20	19	mm	120	231	369
Frame#	Time	ThumbCMC			ThumbMCP			ThumbIP			ThumbTip			IndexMCP			IndexPIP			IndexTip			MiddleMCP			MiddlePIP			MiddleTip			RingMCP			RingPIP			RingTip			PinkyMCP			PinkyPIP			PinkyTip			BackHand1			BackHand2			BackHand3	
		X0	Y0	Z0	X1	Y1	Z1	X2	Y2	Z2	X3	Y3	Z3	X4	Y4	Z4	X5	Y5	Z5	X6	Y6	Z6	X7	Y7	Z7	X8	Y8	Z8	X9	Y9	Z9	X10	Y10	Z10	X11	Y11	Z11	X12	Y12	Z12	X13	Y13	Z13	X14	Y14	Z14	X15	Y15	Z15	X16	Y16	Z16	X17	Y17	Z17	X18	Y18	Z18	
230	1.91667	-123.868	89.167	1.70723	-98.0101	105.163	-15.9735	-81.4373	113.58	-34.3759	-63.1073	109.462	-54.1155	-109.543	70.9751	-65.858	-85.0256	87.7869	-81.2811	-63.2394	106.375	-67.7539	-100.075	44.2287	-66.2201	-90.6517	48.7472	-94.13	-74.7581	52.9011	-120.654	-88.4775	34.9276	-58.7079	-75.0174	28.0909	-77.7703	-67.343	30.0156	-102.855	-67.4288	24.5144	-37.2838	-52.6155	20.516	-56.5868	-39.5422	10.3535	-73.3866	-106.629	28.8586	-14.2945	-117.505	31.5001	13.0399	-132.557	48.7277	-7.56508	
231	1.925	-126.814	88.3468	-1.38909	-105.327	111.753	-17.6661	-88.1012	117.591	-36.7741	-70.6291	117.88	-54.1091	-113.038	74.9077	-68.9786	-92.7456	91.5419	-82.7911	-68.2524	111.996	-65.3524	-105.285	50.9981	-71.1782	-92.4295	53.9933	-97.5794	-78.769	57.151	-122.51	-87.5792	37.5314	-60.687	-73.5206	34.1481	-80.201	-65.1282	36.3276	-105.254	-69.4919	33.2936	-39.2246	-52.9285	30.2697	-56.228	-40.8736	20.2644	-71.0797	-107.776	31.2847	-14.7564	-116.664	30.0779	13.1214	-133.861	49.327	-8.40767	
232	1.93333	-131.451	88.9016	-1.56367	-109.166	108.221	-17.1184	-95.2714	120.832	-36.499	-78.3652	120.872	-52.4416	-115.241	74.5688	-70.305	-98.5458	94.7285	-83.9211	-80.1806	115.289	-69.054	-104.587	49.9697	-71.8621	-96.4427	55.9907	-97.6743	-83.9981	60.0109	-119.147	-85.0554	38.6206	-61.9958	-77.0687	41.2591	-82.7598	-65.7565	41.7362	-107.71	-68.2071	36.5676	-44.2782	-50.5758	35.2152	-57.7197	-37.837	27.8738	-77.2893	-108.201	34.0393	-12.2519	-114.909	30.9228	13.9002	-136.38	48.5152	-5.73866	
233	1.94167	-135.317	87.4612	2.26094	-116.108	110.114	-15.0675	-102.937	124.999	-34.8639	-81.8234	122.722	-57.9196	-119.423	75.196	-68.2369	-100.992	96.8813	-84.4317	-84.2045	117.836	-65.9368	-107.243	53.3794	-69.1282	-97.8772	56.8324	-94.2626	-83.7206	64.1718	-123.559	-89.8273	44.697	-58.6884	-74.9588	43.3237	-81.8835	-67.3277	47.5307	-110.714	-68.1634	41.8742	-43.1339	-51.4837	43.443	-61.3365	-37.3014	37.7368	-74.5783	-103.307	32.1894	-13.7371	-113.607	30.838	13.7321	-134.4	47.4206	-10.8651	
234	1.95	-137.989	88.3027	-1.84453	-120.621	112.6	-13.9435	-107.329	125.849	-37.226	-88.2751	124.056	-53.1293	-121.181	76.8353	-71.1556	-103.743	100.557	-83.2074	-91.9248	121.957	-64.4459	-108.315	54.4117	-73.4384	-98.7763	60.7506	-99.3994	-87.3188	67.7725	-122.52	-87.6374	46.0312	-64.9861	-78.0046	49.0743	-83.8971	-66.3048	52.3545	-110.259	-69.2203	46.6611	-44.3356	-51.8044	47.2069	-59.4556	-38.5723	42.341	-77.7174	-105.485	35.574	-16.5904	-115.758	32.4276	11.1488	-136.196	47.2245	-9.56913	
235	1.95833	-140.617	87.6892	2.74341	-124.996	114.721	-15.6615	-112.322	129.652	-35.0333	-91.6582	126.443	-54.628	-120.777	76.6814	-70.4447	-108.326	99.6338	-83.885	-95.6793	124.866	-61.0118	-106.363	55.3355	-74.2956	-101.54	64.0163	-100.324	-88.9343	70.2126	-123.191	-86.8791	48.4987	-64.4289	-78.3007	52.7813	-86.9038	-68.3394	55.7379	-108.417	-65.6799	47.4326	-44.4716	-51.4441	52.0547	-61.7864	-39.6187	49.0159	-76.5302	-103.565	37.605	-14.9476	-111.165	32.4173	14.0657	-138.94	48.8895	-12.2678	
236	1.96667	-143.217	91.0927	1.59773	-127.696	118.179	-14.3366	-114.762	132.476	-36.1428	-95.7002	132.897	-55.0232	-125.008	82.2887	-72.5938	-109.388	103.564	-82.5731	-95.664	126.173	-58.3844	-110.053	58.9773	-70.1223	-99.6483	65.6249	-100.556	-91.5266	73.4563	-122.643	-90.2058	52.3415	-62.2597	-76.0693	55.5662	-89.0042	-67.9078	60.4411	-111.227	-65.9548	50.2721	-43.4825	-51.938	55.934	-63.6596	-39.4492	55.5481	-81.201	-107.443	39.7646	-15.4865	-111.642	32.7191	10.743	-136.636	49.6309	-10.7433	
237	1.975	-140.177	87.6765	-2.47061	-128.444	117.424	-18.0023	-115.71	129.449	-34.7483	-98.4197	135.68	-54.4547	-125.929	83.7544	-73.1578	-114.956	106.361	-82.9715	-99.1175	126.187	-60.9251	-112.384	61.0299	-74.231	-104.924	68.3951	-99.8839	-91.7252	75.7315	-125.139	-89.4885	54.0127	-63.5849	-80.1978	58.3091	-86.3031	-72.7139	65.1464	-110.015	-69.2939	56.2732	-48.9659	-54.3867	59.9311	-59.8037	-36.7054	61.5282	-81.1921	-103.319	40.949	-16.6368	-112.951	34.8262	7.82362	-135.481	47.953	-10.1542	
238	1.98333	-146.03	88.9875	-0.884873	-132.929	116.903	-13.8649	-121.498	134.476	-36.1381	-102.964	135.682	-54.2059	-130.374	83.192	-70.9245	-116.151	111.209	-81.5073	-106.67	130.695	-59.6643	-112.317	61.2207	-74.7077	-101.837	68.2433	-100.096	-95.377	79.1871	-126.247	-91.3831	56.8023	-66.9321	-81.9451	61.15	-86.2741	-72.3345	68.213	-110.375	-66.593	57.2893	-48.327	-54.1443	64.85	-63.5846	-37.7773	64.9859	-78.9029	-107.037	42.3637	-16.6362	-110.416	33.7158	6.83394	-138.373	50.1976	-7.77602	
239	1.99167	-148.172	87.7518	0.160567	-133.96	115.022	-15.3597	-123.888	132.384	-35.9144	-105.082	138.147	-56.0888	-128.545	82.092	-70.8782	-121.185	109.745	-82.4631	-107.653	130.751	-58.6744	-112.325	61.5163	-74.4436	-102.255	69.4382	-99.1651	-94.7346	81.155	-126.282	-90.0423	57.2659	-64.5943	-80.953	64.2656	-89.6887	-71.0593	70.9	-109.091	-71.7877	59.5493	-45.7953	-52.7729	67.1707	-64.6099	-40.7065	67.3224	-77.8419	-103.696	42.4723	-19.7287	-110.815	33.6311	10.4938	-137.826	47.7107	-10.7331	
240	2	-148.049	87.4217	-2.58907	-138.789	115.753	-13.2021	-127.912	133.306	-35.3008	-107.282	134.558	-52.6724	-129.455	82.3109	-71.2607	-118.305	111.476	-81.1019	-110.797	130.003	-61.3059	-110	62.2395	-77.6583	-104.695	69.8738	-97.5362	-97.1384	83.6718	-127.191	-93.6158	59.7085	-67.2448	-82.2383	66.1339	-88.8828	-71.3247	74.1211	-113.555	-66.3044	59.8557	-48.6267	-53.5345	68.1969	-62.4469	-40.3685	70.0539	-80.3196	-104.11	40.5881	-18.6682	-112.644	36.8383	7.674	-139.528	47.1977	-12.0232	
241	2.00833	-147.91	84.1023	1.05388	-139.517	115.979	-14.2693	-128.719	133.502	-38.186	-110.991	136.151	-51.2965	-132.969	83.9429	-71.437	-122.721	110.164	-82.3865	-110.752	129.226	-59.185	-115.14	63.3276	-75.7259	-108.641	73.1786	-100.509	-98.9233	85.2349	-124.952	-93.222	59.5455	-67.8858	-80.0572	66.8539	-92.3984	-74.0207	77.5097	-114.984	-67.7683	60.8308	-48.3107	-53.7023	69.7614	-65.1304	-38.4338	71.5789	-79.8157	-105.812	40.3976	-19.4073	-111.446	35.4904	8.32186	-136.416	48.1394	-15.1103	
242	2.01667	-150.166	87.1691	-0.501893	-136.191	113.598	-15.8557	-128.234	133.671	-35.0745	-109.244	139.766	-54.8581	-133.862	87.8373	-73.7346	-119.809	113.354	-80.567	-108.352	129.813	-54.9644	-114.449	64.6972	-77.5693	-109.939	76.103	-102.498	-98.5859	85.4965	-123.408	-91.37	57.7642	-67.2703	-85.3496	68.4974	-91.8258	-72.5351	75.8399	-115.316	-71.081	58.9223	-50.5895	-58.8499	67.3295	-66.1276	-39.4301	68.527	-82.3948	-111.355	42.1573	-21.4572	-116.321	35.4769	7.83339	-142.041	48.8233	-15.6907	
243	2.025	-149.304	88.5435	0.0766963	-136.376	117.505	-12.6161	-123.706	132.954	-32.8922	-107.167	139.602	-50.733	-131.781	88.3345	-72.7086	-116.813	113.187	-80.1344	-105.763	131.607	-53.5719	-117.482	67.4757	-77.6634	-108.438	75.7535	-101.061	-96.62	87.4154	-124.337	-94.9092	58.5707	-65.0554	-88.0211	66.2387	-88.6356	-73.2448	74.8662	-115.233	-73.2882	57.4717	-52.2016	-59.1471	62.8128	-65.3583	-44.2694	64.4469	-82.0393	-113.583	43.4486	-25.1086	-121.806	34.9973	4.33922	-141.556	48.8057	-13.8134	
244	2.03333	-146.608	92.459	-0.185759	-134.011	121.239	-9.61689	-120.229	135.175	-28.4142	-100.718	141.745	-50.2769	-133.072	92.0298	-69.3442	-114.982	115.162	-79.7636	-103.638	133.935	-53.618	-120.579	69.8681	-77.4421	-108.473	77.9257	-99.4222	-97.9057	90.4329	-123.286	-100.22	60.3904	-67.866	-88.3886	68.0146	-93.2141	-74.7695	73.3168	-114.559	-77.927	54.3978	-50.5024	-62.9908	58.1672	-63.8959	-48.3961	57.7124	-83.482	-115.076	41.7352	-21.5576	-124.745	34.8376	1.78877	-149.288	56.4704	-12.0292	
245	2.04167	-146.188	97.5912	4.52795	-124.283	126.097	-10.7299	-110.803	138.897	-24.8733	-92.7742	140.787	-42.6523	-130.502	99.2433	-69.2892	-111.038	121.005	-75.6336	-95.3774	135.455	-50.7505	-124.401	75.1355	-73.7114	-111.682	82.7289	-98.7495	-97.7404	94.4312	-122.636	-106.11	62.3905	-69.7572	-91.4728	67.294	-93.2438	-79.5455	73.0246	-112.715	-82.702	50.8373	-50.6827	-70.8678	55.8474	-67.7436	-56.6778	52.3328	-87.2775	-121.803	45.0255	-26.0097	-131.045	38.0452	2.06863	-152.427	61.8217	-12.9295	
246	2.05	-141.312	105.831	5.40735	-114.97	126.573	-8.3424	-100.472	136.776	-20.9517	-82.7554	139.417	-39.9797	-127.871	106.909	-67.7921	-105.186	126.588	-72.7369	-85.6564	131.359	-48.0704	-126.411	81.4364	-74.7424	-113.424	91.2079	-100.792	-101.973	102.704	-120.669	-108.122	61.0106	-68.1067	-98.8553	71.059	-94.5537	-82.994	75.1559	-116.016	-89.7579	52.0397	-56.2982	-75.6088	53.8619	-74.0488	-64.9556	50.6441	-88.2926	-129.692	50.8929	-27.4304	-137.12	42.0923	3.97686	-152.938	69.8508	-15.1161	
247	2.05833	-135.103	107.559	7.10277	-107.045	122.499	-2.67008	-89.6986	135.908	-22.7289	-74.8362	136.544	-38.319	-128.208	115.171	-64.1142	-101.303	128.796	-71.0573	-79.5278	133.774	-48.0397	-127.138	88.7282	-73.8256	-115.888	97.4561	-97.0528	-98.257	107.93	-121.866	-113.479	65.8077	-68.2018	-99.8924	69.2497	-94.1066	-86.3078	76.3467	-117.234	-96.3399	49.8945	-55.4621	-83.6618	52.1843	-74.8148	-74.1434	48.3723	-94.7752	-132.23	52.3133	-26.7792	-142.312	46.4974	1.40473	-154.557	74.5267	-9.05651	
248	2.06667	-127.943	113.734	11.4211	-98.6199	123.564	0.130939	-80.3389	133.039	-16.7264	-64.242	131.308	-39.0701	-123.218	117.626	-59.1834	-95.1942	130.945	-68.5277	-70.5457	127.582	-47.1282	-126.743	93.0891	-71.2483	-116.115	106.004	-97.0013	-101.38	112.743	-117.638	-118.062	72.6772	-67.6266	-107.365	77.2865	-93.0793	-95.6055	81.2191	-114.555	-103.837	52.2846	-56.0075	-90.7769	51.6214	-76.1305	-80.797	45.32	-99.7302	-136.985	61.8822	-25.5953	-148.024	54.0114	2.66417	-151.738	84.6398	-5.76073	
249	2.075	-119.238	115.757	13.4721	-88.7345	121.544	1.59235	-68.6507	129.402	-18.6805	-55.0825	127.205	-36.7339	-116.418	125.814	-58.3551	-90.3913	132.082	-66.4836	-64.876	126.214	-47.6359	-126.274	103.071	-66.9691	-115.059	110.397	-92.4431	-99.0315	117.112	-117.424	-121.269	79.0275	-67.6914	-111.104	83.175	-94.8535	-99.0576	87.7307	-119.252	-111.836	57.3077	-59.8885	-100.758	53.2204	-77.7485	-94.8531	48.3815	-101.045	-141.64	64.7377	-24.8792	-148.372	61.2096	4.69123	-151.593	94.9373	-1.25174	
